<svg id="CART" xmlns="http://www.w3.org/2000/svg" width="35.45" height="32.444" viewBox="0 0 35.45 32.444">
  <g id="Group_28" data-name="Group 28" transform="translate(23.648 23.604)">
    <g id="Group_27" data-name="Group 27">
      <path id="Path_29" data-name="Path 29" d="M345.967,362.612a4.42,4.42,0,1,0,4.42,4.42A4.425,4.425,0,0,0,345.967,362.612Zm0,6.188a1.768,1.768,0,1,1,1.768-1.768A1.77,1.77,0,0,1,345.967,368.8Z" transform="translate(-341.547 -362.612)" fill="#141414"/>
    </g>
  </g>
  <g id="Group_30" data-name="Group 30" transform="translate(0 0)">
    <g id="Group_29" data-name="Group 29">
      <path id="Path_30" data-name="Path 30" d="M35.168,28.225a1.324,1.324,0,0,0-1.044-.509H8.185L6.992,22.723A1.327,1.327,0,0,0,5.7,21.7H1.326a1.326,1.326,0,1,0,0,2.652H4.655L8.965,42.39a1.326,1.326,0,0,0,1.29,1.018H30.9A1.326,1.326,0,0,0,32.185,42.4l3.227-13.04A1.328,1.328,0,0,0,35.168,28.225ZM29.86,40.756H11.3L8.819,30.369H32.43Z" transform="translate(0 -21.705)" fill="#141414"/>
    </g>
  </g>
  <g id="Group_32" data-name="Group 32" transform="translate(7.603 23.604)">
    <g id="Group_31" data-name="Group 31">
      <path id="Path_31" data-name="Path 31" d="M114.226,362.612a4.42,4.42,0,1,0,4.42,4.42A4.425,4.425,0,0,0,114.226,362.612Zm0,6.188a1.768,1.768,0,1,1,1.768-1.768A1.77,1.77,0,0,1,114.226,368.8Z" transform="translate(-109.806 -362.612)" fill="#141414"/>
    </g>
  </g>
</svg>
